<svg width="111" height="29" viewBox="0 0 111 29" fill="none" xmlns="http://www.w3.org/2000/svg">
<path d="M8.296 28.006C8.03 25.878 8.676 23.37 9.968 21.66L12.438 18.392L14.034 21.356C15.022 23.256 15.364 25.84 14.832 27.93L14.68 28.5H28.056L26.46 26.98C24.902 25.498 23.192 23.256 22.204 21.356L17.226 12.122L20.836 7.296C22.166 5.586 24.104 3.572 25.814 2.28L28.056 0.455999H20.418L20.532 0.949999C20.798 3.078 20.152 5.586 18.822 7.296L16.39 10.564L14.794 7.6C13.806 5.7 13.464 3.116 13.996 1.026L14.148 0.455999H0.772L2.368 1.976C3.888 3.458 5.636 5.7 6.624 7.6L11.602 16.834L7.992 21.66C6.662 23.37 4.686 25.384 3.014 26.714L0.772 28.5H8.372L8.296 28.006ZM38.9841 27.702C37.9961 25.764 37.3501 23.066 37.3501 20.9V0.455999L28.1541 2.052L28.5721 2.888C29.5221 4.788 30.1681 7.524 30.1681 9.69V20.9C30.1681 23.066 29.5221 25.764 28.5721 27.702L28.1541 28.5H39.3641L38.9841 27.702ZM40.0915 10.868C41.0415 12.806 41.6875 15.542 41.6875 17.632V21.28C41.6875 26.03 44.5375 28.918 49.2115 28.918C52.2895 28.918 54.6455 27.664 56.1275 25.46V28.5H65.3615L64.9435 27.664C63.9935 25.726 63.3475 23.028 63.3475 20.9V8.474L54.1135 10.07L54.5315 10.868C55.4815 12.806 56.1275 15.542 56.1275 17.632V19.95C55.9755 23.788 54.2275 26.638 51.8715 26.638C49.8195 26.638 48.8695 24.358 48.8695 20.9V8.474L39.6735 10.07L40.0915 10.868ZM81.0521 27.17V28.5H90.2481L89.8681 27.702C88.8801 25.764 88.2721 23.066 88.2721 20.9V0.455999L79.0381 2.052L79.4561 2.888C80.4061 4.788 81.0521 7.524 81.0521 9.69V11.552C79.6081 9.348 77.4421 8.094 74.6681 8.094C69.7661 8.094 66.2321 12.236 66.2321 18.24C66.2321 24.586 70.1841 28.918 75.8841 28.918C78.0501 28.918 79.7981 28.272 81.0521 27.17ZM73.4521 17.898C73.4521 13.148 74.7061 10.07 76.8721 10.07C79.1901 10.07 80.9001 13.49 81.0521 18.582V22.42C81.0521 25.118 79.6081 27.094 77.7081 27.094C75.1241 27.094 73.4521 23.37 73.4521 17.898ZM110.262 15.086C110.262 11.248 107.032 8.094 101.712 8.094C95.632 8.094 91.11 12.236 91.11 18.506C91.11 24.776 95.67 28.918 101.484 28.918C106.082 28.918 110.034 26.334 110.756 21.736C109.236 23.902 106.538 25.308 104.068 25.308C101.75 25.308 100.002 23.978 99.09 21.698C105.208 22.344 110.262 19.912 110.262 15.086ZM98.786 20.9C98.482 19.874 98.33 18.696 98.33 17.404C98.33 13.224 99.964 9.69 102.32 9.69C105.816 9.69 106.082 17.252 98.786 20.9Z" fill="#00AB44"/>
</svg>
