<svg width="46" height="46" viewBox="0 0 46 46" fill="none" xmlns="http://www.w3.org/2000/svg">
<path d="M20.1059 4.27424L10.5417 7.8584C8.33755 8.68257 6.53589 11.2892 6.53589 13.6467V27.8876C6.53589 30.1492 8.03091 33.1201 9.85174 34.4809L18.0934 40.6334C20.7959 42.6651 25.2425 42.6651 27.945 40.6334L36.1867 34.4809C38.0076 33.1201 39.5025 30.1492 39.5025 27.8876V13.6467C39.5025 11.2892 37.7009 8.68257 35.4967 7.8584L25.9325 4.27424C24.3034 3.68007 21.6967 3.68007 20.1059 4.27424Z" stroke="white" stroke-width="2" stroke-linecap="round" stroke-linejoin="round"/>
<path opacity="0.4" d="M23 29.7083C27.2342 29.7083 30.6667 26.2759 30.6667 22.0417C30.6667 17.8075 27.2342 14.375 23 14.375C18.7659 14.375 15.3334 17.8075 15.3334 22.0417C15.3334 26.2759 18.7659 29.7083 23 29.7083Z" stroke="white" stroke-width="2" stroke-miterlimit="10" stroke-linecap="round" stroke-linejoin="round"/>
<path opacity="0.4" d="M23.4792 19.6458V21.4283C23.4792 22.0991 23.1342 22.7316 22.5401 23.0766L21.0834 23.9583" stroke="white" stroke-width="2" stroke-miterlimit="10" stroke-linecap="round" stroke-linejoin="round"/>
</svg>
