<svg width="48" height="48" viewBox="0 0 48 48" fill="none" xmlns="http://www.w3.org/2000/svg">
<path d="M18 4H30C40 4 44 8 44 18V30C44 40 40 44 30 44H18C8 44 4 40 4 30V18C4 8 8 4 18 4Z" stroke="white" stroke-width="2" stroke-linecap="round" stroke-linejoin="round"/>
<path opacity="0.4" d="M16.6396 30.5399L29.7196 17.46" stroke="white" stroke-width="2" stroke-linecap="round" stroke-linejoin="round"/>
<path opacity="0.4" d="M17.46 20.7401C18.8186 20.7401 19.92 19.6387 19.92 18.2801C19.92 16.9215 18.8186 15.8201 17.46 15.8201C16.1014 15.8201 15 16.9215 15 18.2801C15 19.6387 16.1014 20.7401 17.46 20.7401Z" stroke="white" stroke-width="2" stroke-linecap="round" stroke-linejoin="round"/>
<path opacity="0.4" d="M30.54 32.18C31.8987 32.18 33.0001 31.0786 33.0001 29.72C33.0001 28.3614 31.8987 27.26 30.54 27.26C29.1814 27.26 28.0801 28.3614 28.0801 29.72C28.0801 31.0786 29.1814 32.18 30.54 32.18Z" stroke="white" stroke-width="2" stroke-linecap="round" stroke-linejoin="round"/>
</svg>
